<svg xmlns="http://www.w3.org/2000/svg" xmlns:xlink="http://www.w3.org/1999/xlink" fill="none" version="1.1" width="48" height="48" viewBox="0 0 48 48"><g><rect x="0" y="0" width="48" height="48" rx="2" fill="#F2F5FA" fill-opacity="1"/><g><g><path d="M11.4015625,13.19921875L36.6015625,13.19921875C37.5956625,13.19921875,38.4015625,14.00510575,38.4015625,14.99921875L38.4015625,32.99921875C38.4015625,33.99331875,37.5956625,34.79921875,36.6015625,34.79921875L11.4015625,34.79921875C10.4074495,34.79921875,9.6015625,33.99331875,9.6015625,32.99921875L9.6015625,14.99921875C9.6015625,14.00510575,10.4074495,13.19921875,11.4015625,13.19921875Z" fill="#BADAFB" fill-opacity="1"/></g><g><path d="M11.401562500000145,11.400390625L21.089062500000146,11.400390625C21.770862500000142,11.400390625,22.394162500000142,11.785594625,22.699062500000146,12.395406625L24.499062500000143,15.995410625C24.943662500000144,16.884570625000002,24.583262500000146,17.965780625,23.694062500000143,18.410360625C23.444162500000143,18.535330625,23.168562500000142,18.600390625,22.889062500000144,18.600390625L11.401562500000145,18.600390625C10.407449500000144,18.600390625,9.601562500000144,17.794500625,9.601562500000144,16.800390625L9.601562500000144,13.200390625C9.601562500000144,12.206277625,10.407449500000144,11.400390625,11.401562500000145,11.400390625Z" fill-rule="evenodd" fill="#5CA3EE" fill-opacity="1"/></g><g><path d="M11.4015625,15L36.6015625,15C37.5956625,15,38.4015625,15.805887,38.4015625,16.8L38.4015625,34.8C38.4015625,35.7941,37.5956625,36.6,36.6015625,36.6L11.4015625,36.6C10.4074495,36.6,9.6015625,35.7941,9.6015625,34.8L9.6015625,16.8C9.6015625,15.805887,10.4074495,15,11.4015625,15Z" fill="#79B7F8" fill-opacity="1"/></g></g></g></svg>