<svg xmlns="http://www.w3.org/2000/svg" xmlns:xlink="http://www.w3.org/1999/xlink" fill="none" version="1.1" width="48" height="48" viewBox="0 0 48 48"><g><rect x="0" y="0" width="48" height="48" rx="2" fill="#F2F5FA" fill-opacity="1"/><g><g><path d="M35.5363,12.00871996L12.464697,19.69925C12.108762,19.81789,11.9164008,20.20261,12.0350457,20.55855C12.0887932,20.71979,12.201031,20.85503,12.349607,20.93757L21.58388,26.067700000000002C21.716450000000002,26.1414,21.88178,26.1182,21.98902,26.011L35.7101,12.28993C35.776399999999995,12.223606,35.776399999999995,12.116072,35.7101,12.049748C35.6646,12.00426082,35.597300000000004,11.9883775,35.5363,12.00871996Z" fill-rule="evenodd" fill="#2C54D1" fill-opacity="1"/></g><g style="opacity:0.3199999928474426;"><path d="M35.992425,12.463775375L28.301855,35.535334375000005C28.183205,35.891334375,27.798485,36.083634375,27.442555,35.965034375C27.281315,35.911234375,27.146075,35.799034375000005,27.063535,35.650434375L21.9333783,26.416134375C21.8597278,26.283634375,21.8828835,26.118234375,21.9901202,26.011034375L35.711124999999996,12.289977775C35.777525,12.223653275,35.885025,12.223653275,35.951325,12.289977775C35.996825,12.335464875,36.012725,12.402747375,35.992425,12.463775375Z" fill-rule="evenodd" fill="#2C54D1" fill-opacity="1"/></g></g></g></svg>